<svg width="21" height="21" viewBox="0 0 21 21" fill="none" xmlns="http://www.w3.org/2000/svg">
<path d="M6.02306 8.6342C6.02306 8.56277 6.05878 8.48241 6.11235 8.42884L6.55878 7.98241C6.61235 7.92884 6.69271 7.89313 6.76413 7.89313C6.83556 7.89313 6.91592 7.92884 6.96949 7.98241L10.4784 11.4913L13.9873 7.98241C14.0409 7.92884 14.1213 7.89313 14.1927 7.89313C14.2731 7.89313 14.3445 7.92884 14.3981 7.98241L14.8445 8.42884C14.8981 8.48241 14.9338 8.56277 14.9338 8.6342C14.9338 8.70563 14.8981 8.78598 14.8445 8.83956L10.6838 13.0003C10.6302 13.0538 10.5498 13.0896 10.4784 13.0896C10.407 13.0896 10.3266 13.0538 10.2731 13.0003L6.11235 8.83956C6.05878 8.78599 6.02306 8.70563 6.02306 8.6342Z" fill="white"/>
</svg>
