<svg width="78" height="78" viewBox="0 0 78 78" fill="none" xmlns="http://www.w3.org/2000/svg">
<rect width="78" height="78" rx="39" fill="black"/>
<rect x="2.79395" y="2.79492" width="72.4118" height="72.4118" rx="36.2059" fill="black" stroke="#FFB800"/>
<path d="M24.2488 32.3216H16.8296V28.7886H35.4899V32.3216H28.0708V50.468H24.2488V32.3216Z" fill="#FFB800"/>
<path d="M39.8133 47.6738C37.6721 45.5326 36.6015 42.8562 36.6015 39.6444C36.6015 36.4326 37.6935 33.7454 39.8775 31.5829C42.0401 29.4417 44.7701 28.3711 48.0675 28.3711C50.3158 28.3711 52.3392 28.9064 54.1377 29.977C55.9577 31.0476 57.3281 32.5036 58.2488 34.345L54.5232 35.726C53.8808 34.5698 52.9922 33.6705 51.8574 33.0282C50.7226 32.3858 49.4593 32.0646 48.0675 32.0646C45.9692 32.0646 44.192 32.7926 42.736 34.2486C41.3014 35.6832 40.5841 37.4711 40.5841 39.6123C40.5841 41.7963 41.2693 43.6056 42.6396 45.0402C44.01 46.4747 45.7122 47.192 47.7463 47.192C49.3308 47.192 50.7761 46.721 52.0822 45.7789C53.3455 44.8582 54.1913 43.6377 54.6195 42.1174H47.3609V38.6166H58.9554C58.9982 39.1733 59.0196 39.5266 59.0196 39.6765C58.9768 42.8883 57.8955 45.554 55.7758 47.6738C53.656 49.815 51.0116 50.8856 47.8427 50.8856C44.6309 50.8856 41.9545 49.815 39.8133 47.6738Z" fill="#FFB800"/>
</svg>
